<?xml version="1.0" encoding="UTF-8" standalone="no"?>
<svg width="32px" height="32px" viewBox="0 0 32 32" version="1.1" xmlns="http://www.w3.org/2000/svg" xmlns:xlink="http://www.w3.org/1999/xlink">
    <!-- Generator: sketchtool 40.1 (33804) - http://www.bohemiancoding.com/sketch -->
    <title>3ACFA430-E53E-4CDF-B6DA-B8254FED0905</title>
    <desc>Created with sketchtool.</desc>
    <defs></defs>
    <g id="Styles" stroke="none" stroke-width="1" fill="none" fill-rule="evenodd">
        <g id="Icons" transform="translate(-274.000000, -499.000000)" fill="#FFFFFF">
            <g id="icon_arrowRight" transform="translate(274.000000, 499.000000)">
                <path d="M17.879,9.2925 C17.488,8.9025 16.855,8.9025 16.465,9.2925 C16.074,9.6925 16.074,10.3225 16.465,10.7125 L20.586,14.8325 L10,14.8325 C9.447,14.8325 9,15.2825 9,15.8325 C9,16.3825 9.447,16.8325 10,16.8325 L20.586,16.8325 L16.465,20.9525 C16.074,21.3425 16.074,21.9825 16.465,22.3725 C16.855,22.7625 17.488,22.7625 17.879,22.3725 L23.535,16.7125 C23.775,16.4725 23.85,16.1425 23.795,15.8325 C23.85,15.5225 23.775,15.1925 23.535,14.9525 L17.879,9.2925 Z" transform="translate(16.406067, 15.832500) rotate(360.000000) translate(-16.406067, -15.832500) "></path>
            </g>
        </g>
    </g>
</svg>